<?xml version="1.0" encoding="UTF-8" standalone="no"?>
<!-- Uploaded to: SVG Repo, www.svgrepo.com, Generator: SVG Repo Mixer Tools -->

<svg
   height="800px"
   width="800px"
   version="1.1"
   id="Layer_1"
   viewBox="0 0 512 512"
   xml:space="preserve"
   sodipodi:docname="logo.svg"
   inkscape:version="1.4.3 (0d15f75042, 2025-12-25)"
   xmlns:inkscape="http://www.inkscape.org/namespaces/inkscape"
   xmlns:sodipodi="http://sodipodi.sourceforge.net/DTD/sodipodi-0.dtd"
   xmlns="http://www.w3.org/2000/svg"
   xmlns:svg="http://www.w3.org/2000/svg"><defs
   id="defs15"><rect
   x="114.10407"
   y="51.250133"
   width="539.57687"
   height="635.30825"
   id="rect15" />
	
	
	
	
	
	

		
		
	
		
		
		
		
		
		
		
		
		
		
	
		
		
		
	</defs><sodipodi:namedview
   id="namedview15"
   pagecolor="#ffffff"
   bordercolor="#111111"
   borderopacity="1"
   inkscape:showpageshadow="0"
   inkscape:pageopacity="0"
   inkscape:pagecheckerboard="1"
   inkscape:deskcolor="#d1d1d1"
   showgrid="false"
   inkscape:zoom="1.0341437"
   inkscape:cx="451.58134"
   inkscape:cy="300.7319"
   inkscape:current-layer="Layer_1" />

<text
   xml:space="preserve"
   transform="matrix(2.6206809,0,0,-2.6206809,-195.25749,497.23367)"
   id="text15"
   style="font-size:96px;line-height:0.7;font-family:Olivera;-inkscape-font-specification:'Olivera, Normal';writing-mode:lr-tb;direction:ltr;white-space:pre;shape-inside:url(#rect15);fill:#3b3b4b;fill-rule:evenodd;stroke:#3b3b4b;stroke-width:2.13543;fill-opacity:1"><tspan
     x="114.10352"
     y="176.05"
     id="tspan3"><tspan
       style="font-size:192px;font-family:TALERO;-inkscape-font-specification:'TALERO, Normal'"
       id="tspan1">B</tspan></tspan></text><path
   style="fill:#cad3db;stroke-width:0.642906"
   d="m 291.58118,438.08703 c -4.78795,0 -8.67391,-1.66376 -8.67391,-3.7137 V 311.66782 c 0,-2.05373 3.88596,-3.7137 8.67391,-3.7137 4.78795,0 8.67391,1.65997 8.67391,3.7137 v 122.70593 c 0,2.04952 -3.88596,3.71328 -8.67391,3.71328"
   id="path5" /><path
   style="fill:#cad3db;stroke-width:0.673741"
   d="m 312.09398,324.93183 c -1.75056,0 -3.50111,-0.50691 -4.83416,-1.51547 L 293.5846,313.06997 c -2.67384,-2.02298 -2.67384,-5.29244 0,-7.31482 2.67386,-2.023 6.99524,-2.023 9.66831,0 l 13.67524,10.34637 c 2.67385,2.02298 2.67385,5.29244 0,7.31484 -1.33384,1.00856 -3.08361,1.51547 -4.83417,1.51547"
   id="path8" /><path
   style="fill:#cad3db;stroke-width:0.524437"
   d="m 317.68494,324.93183 h -8.28581 c -2.28699,0 -4.14314,-2.31775 -4.14314,-5.17348 0,-2.85573 1.85615,-5.17348 4.14314,-5.17348 h 8.28581 c 2.28699,0 4.14315,2.31775 4.14315,5.17348 0,2.85631 -1.85616,5.17348 -4.14315,5.17348"
   id="path9" /><path
   style="fill:#cad3db;stroke-width:0.462077"
   d="m 291.52186,452.20101 c -4.18479,7.8876 -11.02667,14.58681 -19.58001,19.30676 h 39.07021 c -2.92556,-1.61538 -5.67704,-3.48318 -8.20821,-5.58527 -4.83906,-4.0069 -8.63406,-8.65618 -11.28199,-13.72149 z m 49.34824,26.73373 -97.88539,-0.003 c -0.22841,0.003 -0.46137,0.003 -0.68571,0.003 -2.4779,0 -4.48071,-1.66376 -4.48071,-3.7137 0,-2.04993 2.00281,-3.7137 4.48071,-3.7137 v -0.003 h 0.0101 c 12.00778,0 23.27148,-3.87315 31.71317,-10.90679 8.43661,-7.02985 13.08329,-16.39906 13.08329,-26.38457 0,-2.04993 2.00283,-3.71369 4.48072,-3.71369 2.47332,0 4.48072,1.66376 4.48072,3.71369 v 0.12241 0.037 c 0,20.30545 19.75918,36.85302 44.17775,37.13151 h 0.62733 c 2.47333,0 4.4807,1.66376 4.4807,3.71369 0,2.04994 -2.00737,3.71369 -4.4807,3.71369 v 0.004 z"
   id="path10" /><path
   style="fill:#e9866f;stroke-width:0.390763"
   d="m 330.03446,296.81178 h -76.90184 c -5.30931,0 -9.61282,-4.98708 -9.61282,-11.14067 0,-6.1536 4.30314,-11.14068 9.61282,-11.14068 h 76.90184 c 5.30932,0 9.61282,4.98708 9.61282,11.14068 0,6.15359 -4.3035,11.14067 -9.61282,11.14067"
   id="path11" /><polygon
   style="fill:#e6eef3"
   points="229.514,66.015 229.514,101.325 282.479,101.325 282.479,66.015 "
   id="polygon14"
   transform="matrix(0.98254564,0,0,0.4206724,40.04949,269.04109)" /><path
   d="M 428.8,217.6 H 70.4 64 v 12.8 h 371.2 v -12.8 z"
   style="fill:#b07f58;fill-rule:evenodd;stroke-width:0.844809;fill-opacity:1"
   id="path3" /><path
   id="path4"
   style="fill:#b88951;fill-rule:evenodd;stroke-width:0.830116;fill-opacity:1"
   d="M 70.4 204.8 L 64 217.6 L 70.4 217.6 L 428.8 217.6 L 435.2 217.6 L 428.8 204.8 L 70.4 204.8 z " /></svg>
